<svg xmlns="http://www.w3.org/2000/svg" width="473" height="470" viewBox="0 0 473 470" version="1.1"><path d="M 183.362 25.500 C 183.032 26.360, 181.539 27, 179.862 27 C 178.185 27, 176.692 27.640, 176.362 28.500 C 176.045 29.325, 175.243 30, 174.580 30 C 173.917 30, 172.081 31.350, 170.500 33 C 168.919 34.650, 167.135 36, 166.535 36 C 165.389 36, 162.030 39.494, 161.958 40.761 C 161.934 41.168, 160.584 42.604, 158.958 43.953 L 156 46.406 156 89.703 L 156 133 200 133 L 244 133 244 92.107 C 244 56.680, 243.799 51.137, 242.500 50.638 C 241.675 50.322, 241 49.474, 241 48.754 C 241 48.035, 239.650 45.968, 238 44.161 C 236.350 42.355, 235 40.645, 235 40.361 C 235 39.410, 229.519 34.391, 227.750 33.723 C 226.787 33.360, 226 32.374, 226 31.531 C 226 30.689, 225.293 30, 224.429 30 C 223.564 30, 222.182 29.325, 221.357 28.500 C 220.532 27.675, 218.587 27, 217.036 27 C 215.450 27, 213.962 26.343, 213.638 25.500 C 213.163 24.262, 210.522 24, 198.500 24 C 186.478 24, 183.837 24.262, 183.362 25.500 M 209.500 26 C 209.160 26.550, 209.835 27, 211 27 C 212.165 27, 212.840 26.550, 212.500 26 C 212.160 25.450, 211.485 25, 211 25 C 210.515 25, 209.840 25.450, 209.500 26 M 188.953 30.050 C 188.154 30.556, 186.543 30.976, 185.372 30.985 C 184.202 30.993, 182.685 31.675, 182 32.500 C 181.315 33.325, 179.943 34, 178.950 34 C 177.957 34, 176.308 35.064, 175.285 36.365 C 174.261 37.666, 172.429 39.047, 171.212 39.433 C 169.995 39.819, 169 40.711, 169 41.414 C 169 42.557, 167.857 44.211, 163.807 48.934 C 162.883 50.012, 162.568 59.736, 162.539 88.097 C 162.517 108.848, 162.780 126.107, 163.122 126.452 C 164.146 127.482, 232.694 127.067, 235.465 126.013 L 238 125.050 238 90.385 C 238 61.067, 237.773 55.549, 236.531 54.610 C 235.723 54, 234.956 51.813, 234.827 49.750 C 234.689 47.561, 234.075 46, 233.352 46 C 232.671 46, 231.301 44.625, 230.308 42.945 C 228.332 39.600, 221.090 34.534, 216.750 33.462 C 215.238 33.089, 214 32.441, 214 32.023 C 214 30.104, 191.651 28.343, 188.953 30.050 M 159.115 45.549 C 157.803 46.932, 157.004 48.337, 157.340 48.673 C 157.965 49.298, 161.907 45.103, 161.967 43.750 C 162.017 42.620, 161.709 42.815, 159.115 45.549 M 240.730 53.075 C 241.309 55.289, 243 55.685, 243 53.607 C 243 52.841, 242.376 51.975, 241.613 51.682 C 240.640 51.308, 240.377 51.724, 240.730 53.075 M 177.500 60.766 C 176.916 61.195, 176.357 69.415, 176.156 80.523 C 175.833 98.403, 175.933 99.695, 177.832 102.023 C 179.472 104.034, 179.963 104.213, 180.447 102.973 C 181.470 100.350, 180.589 60.693, 179.500 60.349 C 178.950 60.175, 178.050 60.363, 177.500 60.766 M 240.607 129.582 C 239.749 131.817, 239.817 132, 241.500 132 C 242.333 132, 243 131.111, 243 130 C 243 127.616, 241.464 127.347, 240.607 129.582 M 168 139.500 C 168 140.325, 167.185 141, 166.188 141 C 163.726 141, 156 144.810, 156 146.023 C 156 146.561, 154.186 147, 151.969 147 C 149.308 147, 147.742 147.510, 147.362 148.500 C 147.005 149.429, 145.483 150, 143.362 150 C 141.240 150, 139.718 150.571, 139.362 151.500 C 139.045 152.325, 138.020 153, 137.084 153 C 136.148 153, 134.509 153.661, 133.441 154.468 C 132.374 155.276, 130.855 155.951, 130.066 155.968 C 128.230 156.009, 120.190 159.884, 119.447 161.087 C 119.136 161.589, 117.109 162, 114.941 162 C 112.105 162, 111 162.420, 111 163.500 C 111 164.611, 109.833 165, 106.500 165 C 103.167 165, 102 165.389, 102 166.500 C 102 167.325, 101.325 168, 100.500 168 C 99.178 168, 99 178.389, 99 255.500 L 99 343 102 343 C 104 343, 105 343.500, 105 344.500 C 105 345.500, 106 346, 108 346 C 110 346, 111 346.500, 111 347.500 C 111 348.611, 112.167 349, 115.500 349 C 118.833 349, 120 349.389, 120 350.500 C 120 351.500, 121 352, 123 352 C 125 352, 126 352.500, 126 353.500 C 126 354.611, 127.167 355, 130.500 355 C 133.833 355, 135 355.389, 135 356.500 C 135 357.611, 136.167 358, 139.500 358 C 142.833 358, 144 358.389, 144 359.500 C 144 360.500, 145 361, 147 361 C 149 361, 150 361.500, 150 362.500 C 150 363.500, 151 364, 153 364 C 155 364, 156 364.500, 156 365.500 C 156 366.500, 157 367, 159 367 C 161 367, 162 367.500, 162 368.500 C 162 369.700, 163.500 370, 169.500 370 C 173.833 370, 177 370.422, 177 371 C 177 371.550, 178.575 372, 180.500 372 L 184 372 184 256.500 C 184 154.500, 183.825 141, 182.500 141 C 181.675 141, 181 140.325, 181 139.500 C 181 138.321, 179.611 138, 174.500 138 C 169.389 138, 168 138.321, 168 139.500 M 169.638 140.500 C 170.052 141.579, 169.534 142, 167.795 142 C 164.865 142, 157 145.660, 157 147.023 C 157 148.509, 159.668 148.189, 161.357 146.500 C 162.182 145.675, 163.689 145, 164.706 145 C 165.723 145, 167.455 144.369, 168.556 143.599 C 169.656 142.828, 171.634 142.040, 172.950 141.849 C 176.930 141.269, 176.663 139, 172.615 139 C 169.868 139, 169.193 139.340, 169.638 140.500 M 177.177 140.553 C 177.629 142.725, 179.404 142.858, 179.810 140.750 C 180.020 139.655, 179.530 139, 178.500 139 C 177.539 139, 176.988 139.647, 177.177 140.553 M 198 257 L 198 373 227 373 L 256 373 256 257 L 256 141 227 141 L 198 141 198 257 M 261 234.500 L 261 328 339.500 328 L 418 328 418 234.500 L 418 141 339.500 141 L 261 141 261 234.500 M 179.641 201.250 C 179.402 233.838, 179.166 261.175, 179.117 262 C 179.068 262.825, 179.546 287.077, 180.179 315.893 C 181.290 366.498, 181.266 368.332, 179.474 369.643 C 177.742 370.909, 177.798 371, 180.309 371 L 183 371 183 256.500 C 183 156.703, 182.812 142, 181.538 142 C 180.276 142, 180.016 150.128, 179.641 201.250 M 198.999 143.750 C 198.998 145.381, 200.833 145.479, 225.999 145.190 L 253 144.881 253.100 162.190 C 253.155 171.711, 253.492 180.536, 253.850 181.803 C 254.207 183.069, 254.500 174.632, 254.500 163.053 L 254.500 142 226.750 142 C 200.988 142, 199 142.125, 198.999 143.750 M 262 234.500 L 262 327 275.250 326.830 L 288.500 326.659 277.500 325.957 C 271.450 325.571, 266.163 325.197, 265.750 325.127 C 265.337 325.057, 265 284.275, 265 234.500 L 265 144 338.418 144 C 378.798 144, 412.548 144.273, 413.418 144.607 C 414.844 145.154, 415 154.059, 415 235.107 L 415 325 412.941 325 C 411.809 325, 411.160 325.450, 411.500 326 C 411.840 326.550, 413.216 327, 414.559 327 L 417 327 417 234.500 L 417 142 339.500 142 L 262 142 262 234.500 M 166.500 148 C 164.850 148.420, 163.950 148.848, 164.500 148.952 C 166.072 149.249, 161.759 150.852, 159.179 150.930 C 157.902 150.968, 156.182 151.675, 155.357 152.500 C 154.532 153.325, 152.539 154, 150.929 154 C 149.318 154, 148 154.450, 148 155 C 148 155.550, 147.186 156, 146.191 156 C 145.196 156, 143.509 156.661, 142.441 157.468 C 141.374 158.276, 139.543 158.951, 138.372 158.968 C 137.202 158.986, 135.724 159.628, 135.087 160.395 C 134.450 161.163, 132.413 162.075, 130.561 162.423 C 128.709 162.770, 126.939 163.717, 126.628 164.527 C 126.283 165.426, 124.734 166, 122.654 166 C 120.779 166, 118.685 166.675, 118 167.500 C 117.315 168.325, 115.685 169, 114.378 169 C 113.070 169, 112 169.450, 112 170 C 112 170.550, 111.331 171, 110.513 171 C 109.696 171, 108.346 172.630, 107.513 174.622 C 106.205 177.754, 106 189.112, 106 258.543 L 106 338.841 109.223 339.549 C 110.996 339.938, 114.195 341.360, 116.331 342.709 C 118.467 344.057, 121.854 345.418, 123.857 345.732 C 125.861 346.046, 127.860 346.910, 128.300 347.652 C 128.740 348.393, 130.652 349, 132.550 349 C 134.950 349, 136 349.456, 136 350.500 C 136 351.500, 137 352, 139 352 C 140.650 352, 142 352.399, 142 352.888 C 142 353.376, 145.262 354.817, 149.250 356.090 C 153.238 357.363, 157.388 358.988, 158.473 359.702 C 159.557 360.416, 161.647 361, 163.116 361 C 164.584 361, 166.045 361.675, 166.362 362.500 C 166.749 363.510, 168.336 364, 171.219 364 L 175.500 364 175.255 257.750 C 175.121 199.313, 174.775 150.488, 174.486 149.250 C 173.928 146.856, 172.114 146.572, 166.500 148 M 148.459 149.067 C 148.096 149.653, 148.036 150.369, 148.325 150.658 C 149.110 151.443, 153 150.008, 153 148.933 C 153 147.645, 149.269 147.755, 148.459 149.067 M 270.667 148.667 C 270.300 149.033, 270 187.906, 270 235.050 L 270 320.767 272.250 321.370 C 273.488 321.701, 304.580 321.979, 341.344 321.986 C 407.226 322, 408.195 321.971, 408.707 320.011 C 408.993 318.917, 409.626 318.269, 410.114 318.570 C 411.572 319.471, 411.259 150.659, 409.800 149.200 C 408.890 148.290, 392.015 148, 339.967 148 C 302.218 148, 271.033 148.300, 270.667 148.667 M 217 149.741 C 212.875 149.887, 208.488 150.238, 207.250 150.522 L 205 151.038 205.208 227.269 C 205.322 269.196, 205.679 296.975, 206 289 C 206.363 279.982, 206.668 291.703, 206.807 320 C 206.938 346.531, 207.426 366.125, 207.979 367 C 208.760 368.236, 212.277 368.534, 227.963 368.692 C 240.130 368.815, 247 368.523, 247 367.883 C 247 367.332, 247.403 367.131, 247.895 367.435 C 248.388 367.740, 249.063 367.279, 249.395 366.412 C 250.422 363.737, 249.924 279.190, 248.809 267 C 248.231 260.675, 247.475 231.650, 247.129 202.500 L 246.500 149.500 235.500 149.488 C 229.450 149.481, 221.125 149.595, 217 149.741 M 141 152.500 C 141 153.325, 141.707 154, 142.571 154 C 143.436 154, 144.818 153.325, 145.643 152.500 C 146.976 151.167, 146.802 151, 144.071 151 C 142.008 151, 141 151.492, 141 152.500 M 134.441 155.468 C 132.968 156.583, 132.861 156.941, 134 156.955 C 136.582 156.986, 140 155.806, 140 154.883 C 140 153.492, 136.578 153.852, 134.441 155.468 M 126.559 158.532 C 124.637 159.985, 124.637 160, 126.559 159.986 C 129.820 159.963, 133.009 158.823, 132.430 157.886 C 131.610 156.559, 128.751 156.874, 126.559 158.532 M 120.872 161.664 C 119.628 163.172, 119.710 163.216, 121.750 162.129 C 124.077 160.889, 124.650 160, 123.122 160 C 122.640 160, 121.627 160.749, 120.872 161.664 M 329.926 162.750 C 328.784 165, 328.470 177.644, 328.196 232.344 C 327.896 292.275, 328.028 299.539, 329.477 302.594 C 330.366 304.467, 331.748 306, 332.547 306 C 333.804 306, 334 296.175, 334 233 C 334 172.666, 333.768 160, 332.661 160 C 331.924 160, 330.693 161.238, 329.926 162.750 M 112 164.500 C 112 165.530, 112.655 166.020, 113.750 165.810 C 115.858 165.404, 115.725 163.629, 113.553 163.177 C 112.647 162.988, 112 163.539, 112 164.500 M 103 167.500 C 103 168.325, 102.270 169, 101.379 169 C 99.891 169, 99.813 175.946, 100.434 253.222 C 100.807 299.545, 101.311 337.645, 101.556 337.889 C 101.800 338.133, 102.081 322.846, 102.181 303.917 C 102.281 284.988, 102.415 266.575, 102.480 263 C 102.545 259.425, 102.723 237.434, 102.875 214.131 L 103.153 171.763 105.577 169.517 C 108.639 166.679, 108.624 166, 105.500 166 C 103.944 166, 103 166.567, 103 167.500 M 205.252 313.500 C 205.263 315.700, 205.468 316.482, 205.707 315.238 C 205.946 313.994, 205.937 312.194, 205.687 311.238 C 205.437 310.282, 205.241 311.300, 205.252 313.500 M 100 340.417 C 100 341.288, 100.713 342, 101.583 342 C 103.349 342, 103.042 339.847, 101.188 339.229 C 100.534 339.011, 100 339.546, 100 340.417 M 106 343.417 C 106 344.288, 106.713 345, 107.583 345 C 109.349 345, 109.042 342.847, 107.188 342.229 C 106.534 342.011, 106 342.546, 106 343.417 M 112 347 C 112 347.550, 113.125 348, 114.500 348 C 115.875 348, 117 347.550, 117 347 C 117 346.450, 115.875 346, 114.500 346 C 113.125 346, 112 346.450, 112 347 M 121 350 C 121 350.550, 122.125 351, 123.500 351 C 124.875 351, 126 350.550, 126 350 C 126 349.450, 124.875 349, 123.500 349 C 122.125 349, 121 349.450, 121 350 M 127 352.392 C 127 353.580, 127.967 354, 130.700 354 C 134.799 354, 134.266 352.578, 129.750 351.462 C 127.608 350.933, 127 351.139, 127 352.392 M 136 355.427 C 136 356.354, 136.855 357, 138.083 357 C 140.520 357, 140.176 354.663, 137.667 354.177 C 136.680 353.985, 136 354.495, 136 355.427 M 151 362 C 151 362.550, 152.238 362.993, 153.750 362.985 C 155.893 362.973, 156.169 362.755, 155 362 C 153.043 360.736, 151 360.736, 151 362 M 157 364.421 C 157 365.509, 157.933 366, 160 366 C 162 366, 163 366.500, 163 367.500 C 163 368.627, 164.180 368.992, 167.750 368.968 C 172.144 368.939, 172.355 368.826, 170.559 367.468 C 169.491 366.661, 167.894 366, 167.009 366 C 166.124 366, 164.972 365.597, 164.450 365.105 C 163.928 364.613, 162.037 363.903, 160.250 363.526 C 157.666 362.981, 157 363.165, 157 364.421 M 135 386 C 135 395.111, 135.258 397, 136.500 397 C 137.611 397, 138 398.167, 138 401.500 C 138 404.833, 138.389 406, 139.500 406 C 140.611 406, 141 407.167, 141 410.500 C 141 413.833, 141.389 415, 142.500 415 C 143.667 415, 144 416.333, 144 421 C 144 425.667, 144.333 427, 145.500 427 C 146.325 427, 147 427.675, 147 428.500 C 147 429.325, 147.675 430, 148.500 430 C 149.325 430, 150 430.675, 150 431.500 C 150 432.808, 155.056 433, 189.500 433 L 229 433 229 430 C 229 428, 229.500 427, 230.500 427 C 231.611 427, 232 425.833, 232 422.500 C 232 419.167, 232.389 418, 233.500 418 C 234.667 418, 235 416.667, 235 412 C 235 407.333, 235.333 406, 236.500 406 C 237.611 406, 238 404.833, 238 401.500 C 238 398.167, 238.389 397, 239.500 397 C 240.667 397, 241 395.667, 241 391 C 241 386.333, 241.333 385, 242.500 385 C 243.548 385, 244 383.944, 244 381.500 C 244 378.019, 243.976 378, 239.500 378 C 236.167 378, 235 377.611, 235 376.500 C 235 375.187, 228.778 375, 185 375 L 135 375 135 386 M 136.177 377.553 C 136.355 378.407, 136.838 379.082, 137.250 379.053 C 137.662 379.024, 159.600 379, 186 379 C 228 379, 234 378.813, 234 377.500 C 234 376.187, 227.881 376, 184.927 376 C 141.092 376, 135.888 376.166, 136.177 377.553 M 238.015 381.250 C 238.028 383.069, 238.216 383.213, 239 382 C 239.828 380.718, 239.972 380.754, 239.985 382.250 C 239.993 383.212, 240.675 384, 241.500 384 C 242.433 384, 243 383.056, 243 381.500 C 243 379.500, 242.500 379, 240.500 379 C 238.570 379, 238.003 379.513, 238.015 381.250 M 143.688 384.087 C 143.075 386.428, 145.023 397.197, 146.215 398.054 C 146.638 398.359, 147.280 400.834, 147.641 403.554 C 148.003 406.274, 148.906 409.388, 149.649 410.473 C 150.392 411.557, 151 413.772, 151 415.395 C 151 420.055, 154.121 425.753, 157 426.350 C 158.375 426.636, 173.450 426.601, 190.500 426.273 L 221.500 425.677 223.750 422.269 C 225.243 420.008, 226 417.351, 226 414.372 C 226 411.902, 226.390 410.123, 226.866 410.417 C 227.342 410.711, 228.200 408.376, 228.772 405.226 C 229.344 402.077, 230.624 396.382, 231.617 392.570 C 232.994 387.283, 233.130 385.543, 232.193 385.231 C 231.517 385.006, 230.329 384.187, 229.554 383.411 C 228.384 382.241, 220.968 382, 186.188 382 C 144.494 382, 144.230 382.013, 143.688 384.087 M 238 388.171 C 238 390.465, 237.382 393.053, 236.627 393.921 C 234.632 396.216, 233.835 405, 235.623 405 C 236.588 405, 237 403.655, 237 400.500 C 237 397.167, 237.389 396, 238.500 396 C 239.667 396, 240 394.667, 240 390 C 240 386.667, 239.556 384, 239 384 C 238.450 384, 238 385.877, 238 388.171 M 136.639 386.694 C 136.288 387.046, 136 389.283, 136 391.667 C 136 394.852, 136.397 396, 137.500 396 C 138.608 396, 139 394.840, 139 391.559 C 139 387.326, 138.022 385.311, 136.639 386.694 M 139 400.917 C 139 403.950, 139.401 405, 140.560 405 C 141.747 405, 142.046 404.121, 141.810 401.327 C 141.365 396.052, 139 395.706, 139 400.917 M 142 411.115 C 142 413.109, 142.433 414.024, 143.250 413.755 C 145.120 413.139, 145.345 409.346, 143.553 408.659 C 142.358 408.200, 142 408.767, 142 411.115 M 232.677 409.750 C 232.434 410.163, 231.922 411.962, 231.538 413.750 C 230.983 416.339, 231.162 417, 232.421 417 C 233.597 417, 234 415.978, 234 413 C 234 409.141, 233.605 408.172, 232.677 409.750 M 229.742 421.910 C 229.326 423.785, 229.214 425.548, 229.493 425.826 C 230.536 426.869, 231.131 425.084, 230.820 421.846 L 230.498 418.500 229.742 421.910 M 145 423.378 C 145 425.042, 145.548 426, 146.500 426 C 147.325 426, 148 425.380, 148 424.622 C 148 423.865, 147.325 422.685, 146.500 422 C 145.232 420.947, 145 421.160, 145 423.378 M 148 428 C 148 428.550, 148.675 429, 149.500 429 C 150.325 429, 151 429.675, 151 430.500 C 151 431.807, 155.944 432, 189.500 432 C 219.636 432, 227.999 431.728, 227.995 430.750 C 227.991 429.776, 219.570 429.451, 189.825 429.279 C 165.280 429.138, 151.292 428.692, 150.629 428.029 C 149.320 426.720, 148 426.705, 148 428 M 156 454 L 156 470 159.500 470 L 163 470 163 457.601 L 163 445.201 167.750 444.779 C 170.363 444.547, 173.012 444.530, 173.638 444.742 C 175.298 445.305, 176 450.025, 176 460.625 L 176 470 178.574 470 L 181.148 470 180.824 455.462 C 180.566 443.879, 180.195 440.731, 179 439.977 C 177.840 439.245, 178.118 439.027, 180.225 439.015 L 182.949 439 183.252 454.750 L 183.555 470.500 183.777 454.250 L 184 438 170 438 L 156 438 156 454 M 192 448.500 C 192 457.167, 191.738 459, 190.500 459 C 189.319 459, 189.039 460.223, 189.185 464.750 L 189.370 470.500 189.737 465.250 C 189.999 461.503, 190.519 460, 191.552 460 C 192.724 460, 193 457.998, 193 449.500 L 193 439 196 439 C 199.060 439, 200.100 440.641, 197.639 441.585 C 196.704 441.944, 196.062 444.981, 195.586 451.303 C 195.205 456.362, 194.468 460.928, 193.947 461.450 C 193.426 461.973, 193 464.110, 193 466.200 C 193 469.717, 193.214 470, 195.869 470 L 198.738 470 199.195 459.714 C 199.687 448.654, 201.264 444.966, 205.472 445.032 C 210.259 445.107, 211 446.961, 211 458.860 L 211 470 214 470 L 217 470 217 460.500 C 217 452.722, 217.272 451, 218.500 451 C 219.633 451, 220 449.778, 220 446 C 220 442.222, 219.633 441, 218.500 441 C 217.675 441, 217 440.325, 217 439.500 C 217 438.247, 214.944 438, 204.500 438 L 192 438 192 448.500 M 157 443.059 C 157 445.634, 157.383 446.881, 158.048 446.470 C 158.624 446.114, 159.022 445.075, 158.933 444.161 C 158.628 441.056, 158.997 440.147, 160.750 439.689 C 161.827 439.408, 161.442 439.187, 159.750 439.116 C 157.183 439.008, 157 439.270, 157 443.059 M 202.246 440.250 C 202.508 441.041, 205.107 441.608, 209.330 441.796 C 215.395 442.065, 216.014 442.291, 216.152 444.296 C 216.236 445.508, 216.350 447.138, 216.407 447.918 C 216.463 448.698, 217.069 449.523, 217.754 449.751 C 218.613 450.038, 219 448.898, 219 446.083 C 219 443.120, 218.588 442, 217.500 442 C 216.675 442, 216 441.325, 216 440.500 C 216 439.308, 214.546 439, 208.917 439 C 203.696 439, 201.942 439.329, 202.246 440.250" stroke="none" fill="#1b49a2" fill-rule="evenodd"/><path d="M 209.500 26 C 209.160 26.550, 209.835 27, 211 27 C 212.165 27, 212.840 26.550, 212.500 26 C 212.160 25.450, 211.485 25, 211 25 C 210.515 25, 209.840 25.450, 209.500 26 M 188.953 30.050 C 188.154 30.556, 186.543 30.976, 185.372 30.985 C 184.202 30.993, 182.685 31.675, 182 32.500 C 181.315 33.325, 179.943 34, 178.950 34 C 177.957 34, 176.308 35.064, 175.285 36.365 C 174.261 37.666, 172.429 39.047, 171.212 39.433 C 169.995 39.819, 169 40.711, 169 41.414 C 169 42.557, 167.857 44.211, 163.807 48.934 C 162.883 50.012, 162.568 59.736, 162.539 88.097 C 162.517 108.848, 162.780 126.107, 163.122 126.452 C 164.146 127.482, 232.694 127.067, 235.465 126.013 L 238 125.050 238 90.385 C 238 61.067, 237.773 55.549, 236.531 54.610 C 235.723 54, 234.956 51.813, 234.827 49.750 C 234.689 47.561, 234.075 46, 233.352 46 C 232.671 46, 231.301 44.625, 230.308 42.945 C 228.332 39.600, 221.090 34.534, 216.750 33.462 C 215.238 33.089, 214 32.441, 214 32.023 C 214 30.104, 191.651 28.343, 188.953 30.050 M 159.115 45.549 C 157.803 46.932, 157.004 48.337, 157.340 48.673 C 157.965 49.298, 161.907 45.103, 161.967 43.750 C 162.017 42.620, 161.709 42.815, 159.115 45.549 M 240.730 53.075 C 241.309 55.289, 243 55.685, 243 53.607 C 243 52.841, 242.376 51.975, 241.613 51.682 C 240.640 51.308, 240.377 51.724, 240.730 53.075 M 177.500 60.766 C 176.916 61.195, 176.357 69.415, 176.156 80.523 C 175.833 98.403, 175.933 99.695, 177.832 102.023 C 179.472 104.034, 179.963 104.213, 180.447 102.973 C 181.470 100.350, 180.589 60.693, 179.500 60.349 C 178.950 60.175, 178.050 60.363, 177.500 60.766 M 240.607 129.582 C 239.749 131.817, 239.817 132, 241.500 132 C 242.333 132, 243 131.111, 243 130 C 243 127.616, 241.464 127.347, 240.607 129.582 M 169.638 140.500 C 170.052 141.579, 169.534 142, 167.795 142 C 164.865 142, 157 145.660, 157 147.023 C 157 148.509, 159.668 148.189, 161.357 146.500 C 162.182 145.675, 163.689 145, 164.706 145 C 165.723 145, 167.455 144.369, 168.556 143.599 C 169.656 142.828, 171.634 142.040, 172.950 141.849 C 176.930 141.269, 176.663 139, 172.615 139 C 169.868 139, 169.193 139.340, 169.638 140.500 M 177.177 140.553 C 177.629 142.725, 179.404 142.858, 179.810 140.750 C 180.020 139.655, 179.530 139, 178.500 139 C 177.539 139, 176.988 139.647, 177.177 140.553 M 179.641 201.250 C 179.402 233.838, 179.166 261.175, 179.117 262 C 179.068 262.825, 179.546 287.077, 180.179 315.893 C 181.290 366.498, 181.266 368.332, 179.474 369.643 C 177.742 370.909, 177.798 371, 180.309 371 L 183 371 183 256.500 C 183 156.703, 182.812 142, 181.538 142 C 180.276 142, 180.016 150.128, 179.641 201.250 M 198.999 143.750 C 198.998 145.381, 200.833 145.479, 225.999 145.190 L 253 144.881 253.100 162.190 C 253.155 171.711, 253.492 180.536, 253.850 181.803 C 254.207 183.069, 254.500 174.632, 254.500 163.053 L 254.500 142 226.750 142 C 200.988 142, 199 142.125, 198.999 143.750 M 262 234.500 L 262 327 275.250 326.830 L 288.500 326.659 277.500 325.957 C 271.450 325.571, 266.163 325.197, 265.750 325.127 C 265.337 325.057, 265 284.275, 265 234.500 L 265 144 338.418 144 C 378.798 144, 412.548 144.273, 413.418 144.607 C 414.844 145.154, 415 154.059, 415 235.107 L 415 325 412.941 325 C 411.809 325, 411.160 325.450, 411.500 326 C 411.840 326.550, 413.216 327, 414.559 327 L 417 327 417 234.500 L 417 142 339.500 142 L 262 142 262 234.500 M 166.500 148 C 164.850 148.420, 163.950 148.848, 164.500 148.952 C 166.072 149.249, 161.759 150.852, 159.179 150.930 C 157.902 150.968, 156.182 151.675, 155.357 152.500 C 154.532 153.325, 152.539 154, 150.929 154 C 149.318 154, 148 154.450, 148 155 C 148 155.550, 147.186 156, 146.191 156 C 145.196 156, 143.509 156.661, 142.441 157.468 C 141.374 158.276, 139.543 158.951, 138.372 158.968 C 137.202 158.986, 135.724 159.628, 135.087 160.395 C 134.450 161.163, 132.413 162.075, 130.561 162.423 C 128.709 162.770, 126.939 163.717, 126.628 164.527 C 126.283 165.426, 124.734 166, 122.654 166 C 120.779 166, 118.685 166.675, 118 167.500 C 117.315 168.325, 115.685 169, 114.378 169 C 113.070 169, 112 169.450, 112 170 C 112 170.550, 111.331 171, 110.513 171 C 109.696 171, 108.346 172.630, 107.513 174.622 C 106.205 177.754, 106 189.112, 106 258.543 L 106 338.841 109.223 339.549 C 110.996 339.938, 114.195 341.360, 116.331 342.709 C 118.467 344.057, 121.854 345.418, 123.857 345.732 C 125.861 346.046, 127.860 346.910, 128.300 347.652 C 128.740 348.393, 130.652 349, 132.550 349 C 134.950 349, 136 349.456, 136 350.500 C 136 351.500, 137 352, 139 352 C 140.650 352, 142 352.399, 142 352.888 C 142 353.376, 145.262 354.817, 149.250 356.090 C 153.238 357.363, 157.388 358.988, 158.473 359.702 C 159.557 360.416, 161.647 361, 163.116 361 C 164.584 361, 166.045 361.675, 166.362 362.500 C 166.749 363.510, 168.336 364, 171.219 364 L 175.500 364 175.255 257.750 C 175.121 199.313, 174.775 150.488, 174.486 149.250 C 173.928 146.856, 172.114 146.572, 166.500 148 M 148.459 149.067 C 148.096 149.653, 148.036 150.369, 148.325 150.658 C 149.110 151.443, 153 150.008, 153 148.933 C 153 147.645, 149.269 147.755, 148.459 149.067 M 270.667 148.667 C 270.300 149.033, 270 187.906, 270 235.050 L 270 320.767 272.250 321.370 C 273.488 321.701, 304.580 321.979, 341.344 321.986 C 407.226 322, 408.195 321.971, 408.707 320.011 C 408.993 318.917, 409.626 318.269, 410.114 318.570 C 411.572 319.471, 411.259 150.659, 409.800 149.200 C 408.890 148.290, 392.015 148, 339.967 148 C 302.218 148, 271.033 148.300, 270.667 148.667 M 217 149.741 C 212.875 149.887, 208.488 150.238, 207.250 150.522 L 205 151.038 205.208 227.269 C 205.322 269.196, 205.679 296.975, 206 289 C 206.363 279.982, 206.668 291.703, 206.807 320 C 206.938 346.531, 207.426 366.125, 207.979 367 C 208.760 368.236, 212.277 368.534, 227.963 368.692 C 240.130 368.815, 247 368.523, 247 367.883 C 247 367.332, 247.403 367.131, 247.895 367.435 C 248.388 367.740, 249.063 367.279, 249.395 366.412 C 250.422 363.737, 249.924 279.190, 248.809 267 C 248.231 260.675, 247.475 231.650, 247.129 202.500 L 246.500 149.500 235.500 149.488 C 229.450 149.481, 221.125 149.595, 217 149.741 M 141 152.500 C 141 153.325, 141.707 154, 142.571 154 C 143.436 154, 144.818 153.325, 145.643 152.500 C 146.976 151.167, 146.802 151, 144.071 151 C 142.008 151, 141 151.492, 141 152.500 M 134.441 155.468 C 132.968 156.583, 132.861 156.941, 134 156.955 C 136.582 156.986, 140 155.806, 140 154.883 C 140 153.492, 136.578 153.852, 134.441 155.468 M 126.559 158.532 C 124.637 159.985, 124.637 160, 126.559 159.986 C 129.820 159.963, 133.009 158.823, 132.430 157.886 C 131.610 156.559, 128.751 156.874, 126.559 158.532 M 120.872 161.664 C 119.628 163.172, 119.710 163.216, 121.750 162.129 C 124.077 160.889, 124.650 160, 123.122 160 C 122.640 160, 121.627 160.749, 120.872 161.664 M 329.926 162.750 C 328.784 165, 328.470 177.644, 328.196 232.344 C 327.896 292.275, 328.028 299.539, 329.477 302.594 C 330.366 304.467, 331.748 306, 332.547 306 C 333.804 306, 334 296.175, 334 233 C 334 172.666, 333.768 160, 332.661 160 C 331.924 160, 330.693 161.238, 329.926 162.750 M 112 164.500 C 112 165.530, 112.655 166.020, 113.750 165.810 C 115.858 165.404, 115.725 163.629, 113.553 163.177 C 112.647 162.988, 112 163.539, 112 164.500 M 103 167.500 C 103 168.325, 102.270 169, 101.379 169 C 99.891 169, 99.813 175.946, 100.434 253.222 C 100.807 299.545, 101.311 337.645, 101.556 337.889 C 101.800 338.133, 102.081 322.846, 102.181 303.917 C 102.281 284.988, 102.415 266.575, 102.480 263 C 102.545 259.425, 102.723 237.434, 102.875 214.131 L 103.153 171.763 105.577 169.517 C 108.639 166.679, 108.624 166, 105.500 166 C 103.944 166, 103 166.567, 103 167.500 M 205.252 313.500 C 205.263 315.700, 205.468 316.482, 205.707 315.238 C 205.946 313.994, 205.937 312.194, 205.687 311.238 C 205.437 310.282, 205.241 311.300, 205.252 313.500 M 100 340.417 C 100 341.288, 100.713 342, 101.583 342 C 103.349 342, 103.042 339.847, 101.188 339.229 C 100.534 339.011, 100 339.546, 100 340.417 M 106 343.417 C 106 344.288, 106.713 345, 107.583 345 C 109.349 345, 109.042 342.847, 107.188 342.229 C 106.534 342.011, 106 342.546, 106 343.417 M 112 347 C 112 347.550, 113.125 348, 114.500 348 C 115.875 348, 117 347.550, 117 347 C 117 346.450, 115.875 346, 114.500 346 C 113.125 346, 112 346.450, 112 347 M 121 350 C 121 350.550, 122.125 351, 123.500 351 C 124.875 351, 126 350.550, 126 350 C 126 349.450, 124.875 349, 123.500 349 C 122.125 349, 121 349.450, 121 350 M 127 352.392 C 127 353.580, 127.967 354, 130.700 354 C 134.799 354, 134.266 352.578, 129.750 351.462 C 127.608 350.933, 127 351.139, 127 352.392 M 136 355.427 C 136 356.354, 136.855 357, 138.083 357 C 140.520 357, 140.176 354.663, 137.667 354.177 C 136.680 353.985, 136 354.495, 136 355.427 M 151 362 C 151 362.550, 152.238 362.993, 153.750 362.985 C 155.893 362.973, 156.169 362.755, 155 362 C 153.043 360.736, 151 360.736, 151 362 M 157 364.421 C 157 365.509, 157.933 366, 160 366 C 162 366, 163 366.500, 163 367.500 C 163 368.627, 164.180 368.992, 167.750 368.968 C 172.144 368.939, 172.355 368.826, 170.559 367.468 C 169.491 366.661, 167.894 366, 167.009 366 C 166.124 366, 164.972 365.597, 164.450 365.105 C 163.928 364.613, 162.037 363.903, 160.250 363.526 C 157.666 362.981, 157 363.165, 157 364.421 M 136.177 377.553 C 136.355 378.407, 136.838 379.082, 137.250 379.053 C 137.662 379.024, 159.600 379, 186 379 C 228 379, 234 378.813, 234 377.500 C 234 376.187, 227.881 376, 184.927 376 C 141.092 376, 135.888 376.166, 136.177 377.553 M 238.015 381.250 C 238.028 383.069, 238.216 383.213, 239 382 C 239.828 380.718, 239.972 380.754, 239.985 382.250 C 239.993 383.212, 240.675 384, 241.500 384 C 242.433 384, 243 383.056, 243 381.500 C 243 379.500, 242.500 379, 240.500 379 C 238.570 379, 238.003 379.513, 238.015 381.250 M 143.688 384.087 C 143.075 386.428, 145.023 397.197, 146.215 398.054 C 146.638 398.359, 147.280 400.834, 147.641 403.554 C 148.003 406.274, 148.906 409.388, 149.649 410.473 C 150.392 411.557, 151 413.772, 151 415.395 C 151 420.055, 154.121 425.753, 157 426.350 C 158.375 426.636, 173.450 426.601, 190.500 426.273 L 221.500 425.677 223.750 422.269 C 225.243 420.008, 226 417.351, 226 414.372 C 226 411.902, 226.390 410.123, 226.866 410.417 C 227.342 410.711, 228.200 408.376, 228.772 405.226 C 229.344 402.077, 230.624 396.382, 231.617 392.570 C 232.994 387.283, 233.130 385.543, 232.193 385.231 C 231.517 385.006, 230.329 384.187, 229.554 383.411 C 228.384 382.241, 220.968 382, 186.188 382 C 144.494 382, 144.230 382.013, 143.688 384.087 M 238 388.171 C 238 390.465, 237.382 393.053, 236.627 393.921 C 234.632 396.216, 233.835 405, 235.623 405 C 236.588 405, 237 403.655, 237 400.500 C 237 397.167, 237.389 396, 238.500 396 C 239.667 396, 240 394.667, 240 390 C 240 386.667, 239.556 384, 239 384 C 238.450 384, 238 385.877, 238 388.171 M 136.639 386.694 C 136.288 387.046, 136 389.283, 136 391.667 C 136 394.852, 136.397 396, 137.500 396 C 138.608 396, 139 394.840, 139 391.559 C 139 387.326, 138.022 385.311, 136.639 386.694 M 139 400.917 C 139 403.950, 139.401 405, 140.560 405 C 141.747 405, 142.046 404.121, 141.810 401.327 C 141.365 396.052, 139 395.706, 139 400.917 M 142 411.115 C 142 413.109, 142.433 414.024, 143.250 413.755 C 145.120 413.139, 145.345 409.346, 143.553 408.659 C 142.358 408.200, 142 408.767, 142 411.115 M 232.677 409.750 C 232.434 410.163, 231.922 411.962, 231.538 413.750 C 230.983 416.339, 231.162 417, 232.421 417 C 233.597 417, 234 415.978, 234 413 C 234 409.141, 233.605 408.172, 232.677 409.750 M 229.742 421.910 C 229.326 423.785, 229.214 425.548, 229.493 425.826 C 230.536 426.869, 231.131 425.084, 230.820 421.846 L 230.498 418.500 229.742 421.910 M 145 423.378 C 145 425.042, 145.548 426, 146.500 426 C 147.325 426, 148 425.380, 148 424.622 C 148 423.865, 147.325 422.685, 146.500 422 C 145.232 420.947, 145 421.160, 145 423.378 M 148 428 C 148 428.550, 148.675 429, 149.500 429 C 150.325 429, 151 429.675, 151 430.500 C 151 431.807, 155.944 432, 189.500 432 C 219.636 432, 227.999 431.728, 227.995 430.750 C 227.991 429.776, 219.570 429.451, 189.825 429.279 C 165.280 429.138, 151.292 428.692, 150.629 428.029 C 149.320 426.720, 148 426.705, 148 428 M 157 443.059 C 157 445.634, 157.383 446.881, 158.048 446.470 C 158.624 446.114, 159.022 445.075, 158.933 444.161 C 158.628 441.056, 158.997 440.147, 160.750 439.689 C 161.827 439.408, 161.442 439.187, 159.750 439.116 C 157.183 439.008, 157 439.270, 157 443.059 M 179 439.977 C 180.195 440.731, 180.566 443.879, 180.824 455.462 C 181.002 463.482, 181.563 470, 182.074 470 C 182.602 470, 183 463.344, 183 454.500 L 183 439 180.250 439.015 C 178.128 439.027, 177.842 439.247, 179 439.977 M 193 449.500 C 193 458.167, 192.738 460, 191.500 460 C 190.367 460, 190 461.222, 190 465 C 190 468.778, 190.367 470, 191.500 470 C 192.570 470, 193 468.911, 193 466.200 C 193 464.110, 193.426 461.973, 193.947 461.450 C 194.468 460.928, 195.205 456.362, 195.586 451.303 C 196.062 444.981, 196.704 441.944, 197.639 441.585 C 200.100 440.641, 199.060 439, 196 439 L 193 439 193 449.500 M 202.246 440.250 C 202.508 441.041, 205.107 441.608, 209.330 441.796 C 215.395 442.065, 216.014 442.291, 216.152 444.296 C 216.236 445.508, 216.350 447.138, 216.407 447.918 C 216.463 448.698, 217.069 449.523, 217.754 449.751 C 218.613 450.038, 219 448.898, 219 446.083 C 219 443.120, 218.588 442, 217.500 442 C 216.675 442, 216 441.325, 216 440.500 C 216 439.308, 214.546 439, 208.917 439 C 203.696 439, 201.942 439.329, 202.246 440.250 M 167.250 444.732 L 163 445.115 163 457.557 L 163 470 169.605 470 L 176.211 470 175.855 457.964 C 175.580 448.636, 175.162 445.714, 174 444.979 C 173.175 444.457, 172.275 444.102, 172 444.190 C 171.725 444.278, 169.588 444.522, 167.250 444.732 M 201.549 447.214 C 200.036 448.981, 199.560 451.509, 199.195 459.714 L 198.738 470 204.869 470 L 211 470 211 458.860 C 211 449.424, 210.732 447.517, 209.250 446.392 C 206.640 444.411, 203.679 444.727, 201.549 447.214" stroke="none" fill="#408feb" fill-rule="evenodd"/></svg>